
        <svg xmlns="http://www.w3.org/2000/svg" xmlns:xlink="http://www.w3.org/1999/xlink" version="1.1" width="3146.1829994585814" 
        height="1439.9025446670275" viewBox="0 0 3146.1829994585814 1439.9025446670275">
			<rect fill="#ffffff" width="3146.1829994585814" height="1439.9025446670275"/>
			<g transform="scale(7.309149972929074) translate(10, 10)">
				<defs id="SvgjsDefs3026"></defs><g id="SvgjsG3027" featureKey="symbolGroupContainer" transform="matrix(1,0,0,1,0,0)" fill="#46c568"><rect width="196" height="177" rx="8"></rect></g><g id="SvgjsG3028" featureKey="DMynUx-0" transform="matrix(1.6892658614215366,0,0,1.6892658614215366,16.69421542333881,7.420472724859477)" fill="#ffffff"><path xmlns="http://www.w3.org/2000/svg" d="M28.036,91.512c-0.38,0-0.764-0.104-1.096-0.324c-0.708-0.467-1.048-1.332-0.844-2.155l3.552-14.353H15.872  c-0.944,0-1.764-0.656-1.956-1.584L2,16.368c-0.116-0.556,0.004-1.132,0.34-1.588c0.332-0.456,0.84-0.752,1.404-0.813L91.828,4.5  c0.607-0.072,1.22,0.156,1.648,0.592c0.428,0.436,0.631,1.056,0.547,1.66l-7.836,58.191c-0.136,0.992-0.979,1.736-1.983,1.736  H61.216L29.256,91.1C28.892,91.376,28.464,91.512,28.036,91.512L28.036,91.512z"></path></g><g id="SvgjsG3029" featureKey="xgcenu-0" transform="matrix(5.356596378270059,0,0,5.356596378270059,214.92868070838207,-30.282516003776305)" fill="#111111"><path d="M0.2 20 l0 -2 c0.24 0.02 0.52 0.02 0.76 0.02 c0.7 0 1.26 -0.26 1.26 -1.34 l0 -10.68 l2.2 0 l0 10.52 c0 2.8 -1.5 3.52 -3.16 3.52 c-0.4 0 -0.7 0 -1.06 -0.04 z M10.8 6 l2.24 14 l-2.22 0 l-0.38 -2.54 l-2.7 0 l-0.38 2.54 l-2.02 0 l2.24 -14 l3.22 0 z M9.06 8.48 l-1.04 7.08 l2.12 0 l-1.04 -7.08 l-0.04 0 z M18.36 14.780000000000001 l2.08 0 l0 1.86 c0 2.24 -1.12 3.52 -3.28 3.52 s-3.28 -1.28 -3.28 -3.52 l0 -7.28 c0 -2.24 1.12 -3.52 3.28 -3.52 s3.28 1.28 3.28 3.52 l0 1.36 l-2.08 0 l0 -1.5 c0 -1 -0.44 -1.38 -1.14 -1.38 s-1.14 0.38 -1.14 1.38 l0 7.56 c0 1 0.44 1.36 1.14 1.36 s1.14 -0.36 1.14 -1.36 l0 -2 z M23.8 9.22 l0 7.56 c0 1 0.44 1.38 1.14 1.38 s1.14 -0.38 1.14 -1.38 l0 -7.56 c0 -1 -0.44 -1.38 -1.14 -1.38 s-1.14 0.38 -1.14 1.38 z M21.6 16.64 l0 -7.28 c0 -2.24 1.18 -3.52 3.34 -3.52 s3.34 1.28 3.34 3.52 l0 7.28 c0 2.24 -1.18 3.52 -3.34 3.52 s-3.34 -1.28 -3.34 -3.52 z M33.019999999999996 6 c2.28 0 3.26 1.06 3.26 3.22 l0 0.5 c0 1.44 -0.44 2.34 -1.42 2.8 l0 0.04 c1.18 0.46 1.64 1.5 1.64 2.98 l0 1.14 c0 2.16 -1.14 3.32 -3.34 3.32 l-3.46 0 l0 -14 l3.32 0 z M32.879999999999995 13.7 l-0.98 0 l0 4.3 l1.26 0 c0.74 0 1.14 -0.34 1.14 -1.38 l0 -1.22 c0 -1.3 -0.42 -1.7 -1.42 -1.7 z M32.96 8 l-1.06 0 l0 3.7 l0.86 0 c0.82 0 1.32 -0.36 1.32 -1.48 l0 -0.78 c0 -1 -0.34 -1.44 -1.12 -1.44 z"></path></g><g id="SvgjsG3030" featureKey="xgcenu-1" transform="matrix(6.200397081834863,0,0,6.200397081834863,211.1636904535636,51.789688965718064)" fill="#111111"><path d="M5.5 20 l-2.7 -10.14 l-0.04 0 l0 10.14 l-1.98 0 l0 -14 l2.76 0 l2.22 8.38 l0.04 0 l0 -8.38 l1.96 0 l0 14 l-2.26 0 z M11.360000000000001 9.22 l0 7.56 c0 1 0.44 1.38 1.14 1.38 s1.14 -0.38 1.14 -1.38 l0 -7.56 c0 -1 -0.44 -1.38 -1.14 -1.38 s-1.14 0.38 -1.14 1.38 z M9.16 16.64 l0 -7.28 c0 -2.24 1.18 -3.52 3.34 -3.52 s3.34 1.28 3.34 3.52 l0 7.28 c0 2.24 -1.18 3.52 -3.34 3.52 s-3.34 -1.28 -3.34 -3.52 z M19.28 9.22 l0 7.56 c0 1 0.44 1.38 1.14 1.38 s1.14 -0.38 1.14 -1.38 l0 -7.56 c0 -1 -0.44 -1.38 -1.14 -1.38 s-1.14 0.38 -1.14 1.38 z M17.080000000000002 16.64 l0 -7.28 c0 -2.24 1.18 -3.52 3.34 -3.52 s3.34 1.28 3.34 3.52 l0 7.28 c0 2.24 -1.18 3.52 -3.34 3.52 s-3.34 -1.28 -3.34 -3.52 z M29.880000000000003 20 l-2.7 -10.14 l-0.04 0 l0 10.14 l-1.98 0 l0 -14 l2.76 0 l2.22 8.38 l0.04 0 l0 -8.38 l1.96 0 l0 14 l-2.26 0 z"></path></g>
			</g>
		</svg>
	